<?xml version="1.0" encoding="UTF-8" standalone="no"?>
<!DOCTYPE svg PUBLIC "-//W3C//DTD SVG 1.1//EN" "http://www.w3.org/Graphics/SVG/1.1/DTD/svg11.dtd">
<svg width="100%" height="100%" viewBox="0 0 553 985" version="1.1" xmlns="http://www.w3.org/2000/svg" xmlns:xlink="http://www.w3.org/1999/xlink" xml:space="preserve" xmlns:serif="http://www.serif.com/" style="fill-rule:evenodd;clip-rule:evenodd;stroke-linejoin:round;stroke-miterlimit:2;">
    <g transform="matrix(1,0,0,1,-473.814,-2197.16)">
        <g transform="matrix(0.783349,0,0,1.11106,0,-233.252)">
            <g transform="matrix(1.93769,0,0,1.36616,-1635.44,1866.7)">
                <g transform="matrix(1,0,0,1,1,1)">
                    <path d="M1273.17,569.403C1266.26,578.155 1255.7,583.59 1244.61,580.723C1233.52,577.857 1225.81,568.195 1225.81,557.161L1225.81,557.16C1225.81,548.451 1222.21,540.099 1215.8,533.941C1209.4,527.783 1200.7,524.323 1191.64,524.323L1180.69,524.323C1166.59,524.323 1155.17,513.344 1155.17,499.8L1155.17,407.82C1155.17,397.926 1163.51,389.906 1173.81,389.906L1198.47,389.906C1212.12,389.906 1224.82,394.978 1236.47,401.745C1262.03,416.599 1287.96,435.15 1309.86,452.848C1322.61,463.162 1325.63,479.027 1318.87,493.685C1307.2,518.996 1294.88,541.899 1273.17,569.403Z"/>
                </g>
                <g transform="matrix(1,0,0,1,-7,-6.59483)">
                    <path d="M1259.05,402.094C1239.16,386.226 1225.81,364.281 1225.81,339.504L1225.81,325.36C1225.81,310.807 1234.29,297.479 1247.77,290.844C1269.43,280.181 1303.89,263.22 1336.15,247.338C1353.57,238.763 1374.38,239.516 1391.08,249.327C1407.78,259.138 1417.97,276.593 1417.97,295.403L1417.97,341.083C1417.97,349.509 1416.68,357.842 1415.74,366.226C1411.43,404.472 1408.29,430.163 1397.89,466.227C1396.14,472.302 1392.4,477.684 1386.32,480.067C1380.23,482.451 1373.67,481.043 1367.97,477.941C1331.5,458.075 1292.87,429.077 1259.05,402.094Z"/>
                </g>
                <g transform="matrix(1,0,0,1,-8,-2)">
                    <path d="M1420.97,413.104C1424.31,402.318 1433.96,389.906 1445.7,389.906L1474.73,389.906C1501.64,389.906 1523.46,410.876 1523.46,436.743L1523.46,496.288C1523.46,503.723 1520.39,510.854 1514.92,516.112C1509.45,521.37 1502.03,524.323 1494.29,524.323L1451.59,524.323C1440.53,524.323 1429.76,520.968 1420.81,514.735C1418.93,513.427 1417.03,512.104 1415.23,510.851C1409.01,506.513 1407.03,499.263 1407.18,491.863C1407.65,468.776 1413.64,436.741 1420.97,413.104Z"/>
                </g>
                <path d="M1387.74,507.08C1406.73,520.303 1417.97,541.473 1417.97,564.009L1417.97,594.418C1417.97,629.551 1396.43,659.009 1366.24,679.036C1331.64,701.988 1303.25,714.391 1275.51,729.251C1271.18,731.566 1245.32,743.951 1235.6,741.675C1228.98,740.126 1227.58,735.553 1227.25,730.808C1226.84,720.951 1226.52,709.897 1226.28,700.474C1225.93,685.975 1231.19,672.43 1237.32,659.118C1255.47,619.66 1292.47,558.169 1325.25,513.44C1331.44,504.987 1339.78,498.119 1350.34,495.966C1360.89,493.814 1371.91,496.058 1380.65,502.145C1383.02,503.793 1385.39,505.448 1387.74,507.08Z"/>
                <g transform="matrix(1,0,0,1,5,0)">
                    <path d="M1375.61,687.737C1385.08,683.521 1395.74,682.354 1405.31,686.414C1414.88,690.474 1421.91,698.613 1424.3,708.397C1426.91,719.25 1430.5,729.116 1435.36,733.733C1437.74,736.004 1440.72,737.935 1444.11,739.551C1453.6,744.096 1460.25,752.738 1461.99,762.791C1463.72,772.843 1460.34,783.086 1452.88,790.333C1432.81,809.912 1409.99,832.1 1392.08,849.514C1365.79,875.07 1325.1,880.875 1292.22,863.761C1292.22,863.761 1292.22,863.761 1292.22,863.761C1269.61,851.994 1238.16,830.19 1237.99,796.253C1237.92,782.718 1260.5,744.214 1276.63,735.57C1307.38,719.098 1331.89,707.209 1375.61,687.737Z"/>
                </g>
                <g transform="matrix(1,0,0,1,-6,7)">
                    <path d="M1486.9,779.118C1492.98,774.198 1500.89,771.802 1508.42,774.335C1515.95,776.868 1521.29,783.343 1522.14,790.969C1523.33,801.683 1524.61,813.226 1525.81,823.984C1528.53,848.441 1510.28,870.454 1484.86,873.375C1459.87,876.224 1435.3,877.301 1415.33,875.515C1395.31,873.724 1412.17,846.329 1415.67,842.927C1438.18,820.997 1455.76,804.303 1486.9,779.118Z"/>
                </g>
            </g>
        </g>
    </g>
</svg>
